# AST/ASF file generated using VICON BodyLanguage
# -----------------------------------------------
:version 1.10
:name VICON
:units
  mass 1.0
  length 0.45
  angle deg
:documentation
   .ast/.asf automatically generated from VICON data using
   VICON BodyBuilder and BodyLanguage model FoxedUp or BRILLIANT.MOD
:root
   order TX TY TZ RX RY RZ
   axis XYZ
   position 0 0 0  
   orientation 0 0 0 
:bonedata
  begin
     id 1 
     name lhipjoint
     direction 0.643822 -0.745931 0.170529 
     length 2.62041 
     axis 0 0 0  XYZ
  end
  begin
     id 2 
     name lfemur
     direction 0.34202 -0.939693 0  
     length 7.92179  
     axis 0 0 20  XYZ
    dof rx ry rz
    limits (-160.0 20.0)
           (-70.0 70.0)
           (-60.0 70.0)
  end
  begin
     id 3 
     name ltibia
     direction 0.34202 -0.939693 0   
     length 8.16326   
     axis 0 0 20   XYZ
    dof rx
    limits (-10.0 170.0)
  end
  begin
     id 4 
     name lfoot
     direction 0.0837341 -0.230058 0.969568   
     length 1.94455   
     axis -90 7.62852e-016 20   XYZ
    dof rx rz
    limits (-45.0 90.0)
           (-70.0 20.0)
  end
  begin
     id 5 
     name ltoes
     direction 1.5356e-011 -4.21695e-011 1   
     length 0.978804   
     axis -90 7.62852e-016 20   XYZ
    dof rx
    limits (-90.0 20.0)
  end
  begin
     id 6 
     name rhipjoint
     direction -0.656883 -0.73503 0.168037   
     length 2.65927  
     axis 0 0 0  XYZ 
  end
  begin
     id 7 
     name rfemur
     direction -0.34202 -0.939693 0   
     length 7.58746   
     axis 0 0 -20   XYZ
    dof rx ry rz
    limits (-160.0 20.0)
           (-70.0 70.0)
           (-70.0 60.0)
  end
  begin
     id 8 
     name rtibia
     direction -0.342117 -0.939657 0   
     length 8.27303   
     axis 0 0 -20   XYZ
    dof rx
    limits (-10.0 170.0)
 end
 begin
     id 9 
     name rfoot
     direction -0.0685862 -0.188439 0.979687   
     length 2.13088  
     axis -90 -7.62852e-016 -20   XYZ
    dof rx rz
    limits (-45.0 90.0)
           (-20.0 70.0)
  end
  begin
     id 10 
     name rtoes
     direction -1.53538e-011 -4.21514e-011 1   
     length 1.07326   
     axis -90 -7.62852e-016 -20   XYZ
    dof rx
    limits (-90.0 20.0)
  end
  begin
     id 11 
     name lowerback
     direction -0.0358974 0.997216 0.065354   
     length 1.87174   
     axis 0 0 0   XYZ
    dof rx ry rz
    limits (-20.0 45.0)
           (-30.0 30.0)
           (-30.0 30.0)
  end
  begin
     id 12 
     name upperback
     direction 0.0202028 0.998565 0.0495864   
     length 1.8684   
     axis 0 0 0   XYZ
    dof rx ry rz
    limits (-20.0 45.0)
           (-30.0 30.0)
           (-30.0 30.0)
  end
  begin
     id 13 
     name thorax
     direction 0.0366367 0.999163 0.0182199   
     length 1.87747   
     axis 0 0 0   XYZ
    dof rx ry rz
    limits (-20.0 45.0)
           (-30.0 30.0)
           (-30.0 30.0)
  end
  begin
     id 14 
     name lowerneck
     direction 0.0284381 0.999578 -0.00598196   
     length 1.84583   
     axis 0 0 0   XYZ
    dof rx ry rz
    limits (-20.0 45.0)
           (-30.0 30.0)
           (-30.0 30.0)
  end
  begin
     id 15 
     name upperneck
     direction -0.0888142 0.993333 -0.0734973   
     length 1.84467   
     axis 0 0 0   XYZ
    dof rx ry rz
    limits (-20.0 45.0)
           (-30.0 30.0)
           (-30.0 30.0)
  end
  begin
     id 16
     name head
     direction -0.0296474 0.999102 -0.0302696  
     length 1.86566  
     axis 0 0 0   XYZ
    dof rx ry rz
    limits (-20.0 45.0)
           (-30.0 30.0)
           (-30.0 30.0)
  end
  begin
     id 17 
     name lclavicle
     direction 0.933925 0.35714 -0.0153523  
     length 3.93442  
     axis 0 0 0   XYZ
    dof ry rz
    limits (-20.0 10.0)
           (0.0 20.0)
  end
  begin
     id 18 
     name lhumerus
     direction 1 -4.48967e-011 2.12044e-027   
     length 5.78174   
     axis 180 -30 -90   XYZ
    dof rx ry rz
    limits (-60.0 90.0)
           (-90.0 90.0)
           (-90.0 90.0)
  end
  begin
     id 19
     name lradius
     direction 1 -4.48972e-011 6.45701e-027   
     length 3.53992   
     axis 180 -30 -90   XYZ
    dof rx
    limits (-10.0 170.0)
  end
  begin
     id 20
     name lwrist
     direction 1 -4.48981e-011 1.70244e-026   
     length 1.76996   
     axis -1.1226e-014 90 90   XYZ
    dof ry
    limits (-180.0 0.0)
 end
  begin
     id 21 
     name lhand
     direction 1 -4.4879e-011 3.40615e-026   
     length 0.550243   
     axis -2.17265e-014 90 90   XYZ
    dof rx rz
    limits (-90.0 90.0)
           (-45.0 45.0)
  end
  begin
     id 22 
     name lfingers
     direction 1 -4.49029e-011 6.80911e-026   
     length 0.44362   
     axis -4.34526e-014 90 90   XYZ
    dof rx
    limits (0.0 90.0)
  end
  begin
     id 23
     name lthumb
     direction 0.707107 -6.34923e-011 0.707107   
     length 0.636952   
     axis -90 45 -1.62303e-014   XYZ
    dof rx rz
    limits (-45.0 45.0)
           (-45.0 45.0)
  end
  begin
     id 24 
     name rclavicle
     direction -0.950832 0.305106 0.0531883   
     length 3.96125  
     axis 0 0 0   XYZ 
    dof ry rz
    limits (-10.0 20.0)
           (-20.0 0.0)
  end
  begin
     id 25 
     name rhumerus
     direction -1 -4.48961e-011 -6.07392e-030  
     length 5.79352   
     axis 180 30 90   XYZ
    dof rx ry rz
    limits (-90.0 60.0)
           (-90.0 90.0)
           (-90.0 90.0)
  end
  begin
     id 26 
     name rradius
     direction -1 -4.48964e-011 5.97548e-027   
     length 3.37081   
     axis 180 30 90   XYZ
    dof rx
    limits (-10.0 170.0)
  end
  begin
     id 27 
     name rwrist
     direction -1 -4.49021e-011 1.7023e-026   
     length 1.68541   
     axis -1.1226e-014 -90 -90   XYZ
    dof ry
    limits (-180.0 0.0)
  end
  begin
     id 28
     name rhand
     direction -1 -4.48867e-011 3.40563e-026   
     length 0.679827   
     axis -2.17265e-014 -90 -90   XYZ
    dof rx rz
    limits (-90.0 90.0)
           (-45.0 45.0)
  end
  begin
     id 29
     name rfingers
     direction -1 -4.49024e-011 6.80917e-026   
     length 0.548094   
     axis -4.34526e-014 -90 -90   XYZ
    dof rx
    limits (0.0 90.0)
  end
  begin
     id 30
     name rthumb
     direction -0.707107 -6.3488e-011 0.707107   
     length 0.786956   
     axis -90 -45 1.62303e-014   XYZ
    dof rx rz
    limits (-45.0 45.0)
           (-45.0 45.0)
  end
:hierarchy
  begin
    root lhipjoint rhipjoint lowerback
    lhipjoint lfemur
    lfemur ltibia
    ltibia lfoot
    lfoot ltoes
    rhipjoint rfemur
    rfemur rtibia
    rtibia rfoot
    rfoot rtoes
    lowerback upperback
    upperback thorax
    thorax lowerneck lclavicle rclavicle
    lowerneck upperneck
    upperneck head
    lclavicle lhumerus
    lhumerus lradius
    lradius lwrist
    lwrist lhand lthumb
    lhand lfingers
    rclavicle rhumerus
    rhumerus rradius
    rradius rwrist
    rwrist rhand rthumb
    rhand rfingers
  end

#!OML:ASF H:\Terrain\Patient Classification 1\PaulMetrics\Match1Take2\PaulMetrics.ASF
:FULLY-SPECIFIED
:DEGREES
289
root 4.53061 17.9633 -28.3399 10.8922 -57.8736 6.59847
lowerback -6.02791 0.244184 -6.78378
upperback -6.38642 0.425274 0.016708
thorax -3.32789 0.430738 3.83495
lowerneck 1.02403 13.7505 10.334
upperneck 7.25111 19.2956 -12.7402
head 4.24905 9.4837 -4.49731
rclavicle 2.35746e-014 8.94531e-015
rhumerus -54.3453 16.0219 -90.8422
rradius 52.9812
rwrist -9.50006
rhand -9.36507 -29.4413
rfingers 7.12502
rthumb 16.595 -58.7518
lclavicle 2.35746e-014 8.94531e-015
lhumerus -53.3696 -11.0116 85.591
lradius 46.3056
lwrist 2.93909
lhand -15.9495 -9.08299
lfingers 7.12502
lthumb 10.2489 20.6473
rfemur -27.7366 -6.77718 15.5228
rtibia 64.3477
rfoot -0.910653 -12.8807
rtoes -10.6301
lfemur -29.1281 3.00048 -31.7468
ltibia 26.1395
lfoot -16.8833 5.58921
ltoes -18.4054
290
root 4.44337 17.9728 -28.2666 11.1931 -57.2118 6.19883
lowerback -5.88919 0.184237 -6.68838
upperback -6.41991 0.336158 0.188816
thorax -3.42994 0.391619 3.9576
lowerneck 1.04745 13.6603 10.5401
upperneck 7.44607 19.2121 -12.9287
head 4.333 9.43857 -4.58389
rclavicle 5.88465e-014 7.55382e-015
rhumerus -54.8864 16.305 -91.0459
rradius 52.9373
rwrist -10.2203
rhand -10.4579 -30.0435
rfingers 7.12502
rthumb 15.5427 -59.4389
lclavicle 5.88465e-014 7.55382e-015
lhumerus -53.1736 -11.3818 85.8484
lradius 47.6173
lwrist 3.33239
lhand -16.7234 -9.75453
lfingers 7.12502
lthumb 9.50219 20.0112
rfemur -28.823 -6.59018 15.8022
rtibia 64.8893
rfoot -1.3683 -12.6653
rtoes -11.4944
lfemur -28.5907 2.61574 -31.5133
ltibia 26.0208
lfoot -16.938 5.92082
ltoes -22.201
291
root 4.35399 17.9833 -28.1906 11.6397 -56.5716 5.72887
lowerback -5.99598 0.17671 -6.33226
upperback -6.37359 0.327359 0.21386
thorax -3.31217 0.369611 3.78416
lowerneck 0.810301 13.5548 10.6476
upperneck 7.7307 19.0713 -12.8441
head 4.44304 9.35934 -4.56176
rclavicle -4.81711e-014 -9.93923e-015
rhumerus -54.916 16.1021 -91.1716
rradius 52.3692
rwrist -10.364
rhand -11.4036 -30.9357
rfingers 7.12502
rthumb 14.6317 -60.3995
lclavicle -4.81711e-014 -9.93923e-015
lhumerus -52.8156 -12.0838 85.9954
lradius 48.971
lwrist 4.17743
lhand -17.3701 -9.90465
lfingers 7.12502
lthumb 8.87819 19.8886
rfemur -29.9682 -6.35799 16.1022
rtibia 65.2501
rfoot -2.20256 -12.6673
rtoes -11.7507
lfemur -28.1973 1.95829 -31.1594
ltibia 26.0071
lfoot -16.9666 6.55458
ltoes -24.0968
292
root 4.26958 17.991 -28.1204 11.9517 -56.1026 5.49011
lowerback -6.08913 0.187005 -6.10204
upperback -6.35085 0.340324 0.141477
thorax -3.23157 0.362652 3.58034
lowerneck 0.744303 13.4471 10.7782
upperneck 7.66479 18.8966 -12.6843
head 4.40939 9.28268 -4.54689
rclavicle -2.40871e-014 -6.16232e-015
rhumerus -54.8866 16.0078 -91.5423
rradius 51.8498
rwrist -10.8783
rhand -12.3674 -32.1806
rfingers 7.12502
rthumb 13.7029 -61.7094
lclavicle -2.40871e-014 -6.16232e-015
lhumerus -52.5147 -12.7702 85.9506
lradius 50.4863
lwrist 5.14939
lhand -17.7744 -9.56619
lfingers 7.12502
lthumb 8.48807 20.2432
rfemur -31.241 -5.9693 16.2245
rtibia 65.4916
rfoot -3.22094 -12.4258
rtoes -11.8875
lfemur -27.9121 1.05643 -30.8064
ltibia 26.1055
lfoot -17.411 6.71254
ltoes -20.7141
293
root 4.18668 17.9892 -28.0486 11.924 -55.6664 5.62531
lowerback -6.30998 0.114941 -6.1781
upperback -6.22857 0.270587 0.18255
thorax -2.9738 0.3223 3.66523
lowerneck 0.700999 13.4208 10.7328
upperneck 7.45007 18.8462 -12.7607
head 4.34859 9.25823 -4.57092
rclavicle 8.92636e-014 1.35174e-014
rhumerus -54.7406 16.2178 -91.3946
rradius 51.2555
rwrist -10.5095
rhand -11.4201 -30.7663
rfingers 7.12502
rthumb 14.6158 -60.2312
lclavicle 8.92636e-014 1.35174e-014
lhumerus -52.0945 -12.9657 85.9358
lradius 51.9441
lwrist 5.7402
lhand -17.6658 -9.64497
lfingers 7.12502
lthumb 8.59283 20.1602
rfemur -32.5025 -5.61097 16.0993
rtibia 65.6398
rfoot -3.96009 -11.925
rtoes -11.9923
lfemur -27.6356 0.283488 -30.749
ltibia 26.2875
lfoot -17.9566 6.72479
ltoes -18.9563
294
root 4.10119 17.9814 -27.9815 11.9461 -55.1895 5.47816
lowerback -6.40566 0.0159516 -6.14196
upperback -6.01782 0.16061 0.339876
thorax -2.68677 0.258575 3.80571
lowerneck 0.480393 13.4472 10.6491
upperneck 7.46336 18.8851 -12.9138
head 4.40075 9.26118 -4.58358
rclavicle 7.56127e-014 2.78299e-015
rhumerus -54.764 16.7241 -91.2059
rradius 50.9076
rwrist -10.183
rhand -9.68648 -29.0565
rfingers 7.12502
rthumb 16.2855 -58.3926
lclavicle 7.56127e-014 2.78299e-015
lhumerus -51.6899 -12.9385 85.9527
lradius 53.4395
lwrist 6.15163
lhand -17.9508 -9.61035
lfingers 7.12502
lthumb 8.31777 20.2059
rfemur -33.5208 -5.21478 16.1683
rtibia 65.6499
rfoot -4.24961 -11.9295
rtoes -10.3182
lfemur -27.1992 -0.191644 -30.5887
ltibia 26.4322
lfoot -18.093 7.32286
ltoes -21.5719
295
root 4.0139 17.9784 -27.9196 12.2241 -54.6797 4.99029
lowerback -6.21528 -0.0461955 -5.97706
upperback -5.97245 0.0664845 0.506952
thorax -2.73261 0.211148 3.88298
lowerneck 0.437345 13.4328 10.4511
upperneck 7.5177 18.8574 -12.7824
head 4.38929 9.24386 -4.5171
rclavicle 1.04834e-013 1.19271e-014
rhumerus -55.053 17.0429 -91.3966
rradius 50.6485
rwrist -10.564
rhand -7.91872 -27.6601
rfingers 7.12502
rthumb 17.987 -56.8484
lclavicle 1.04834e-013 1.19271e-014
lhumerus -51.5067 -13.1253 85.9536
lradius 54.9943
lwrist 6.56226
lhand -18.9835 -9.61783
lfingers 7.12502
lthumb 7.32111 20.2355
rfemur -34.4698 -4.75907 16.4781
rtibia 65.5096
rfoot -4.23962 -12.7599
rtoes -11.3406
lfemur -26.7247 -0.505165 -30.2025
ltibia 26.5106
lfoot -18.086 7.79805
ltoes -22.8961
296
root 3.92193 17.9764 -27.8544 12.2648 -54.3059 4.90273
lowerback -6.01282 0.0306915 -6.05498
upperback -6.06071 0.15557 0.515159
thorax -2.94978 0.267544 3.93789
lowerneck 0.477599 13.4882 9.307
upperneck 7.47498 18.8177 -11.4891
head 4.1311 9.24056 -3.99956
rclavicle -4.24654e-014 -9.34288e-015
rhumerus -55.2375 16.7811 -91.5381
rradius 50.0977
rwrist -10.8254
rhand -10.2495 -29.668
rfingers 7.12502
rthumb 15.7434 -59.0476
lclavicle -4.24654e-014 -9.34288e-015
lhumerus -51.4164 -13.741 85.971
lradius 56.5174
lwrist 6.83551
lhand -19.1688 -9.88659
lfingers 7.12502
lthumb 7.14223 19.9729
rfemur -35.5075 -4.32632 16.4879
rtibia 65.2258
rfoot -5.07511 -11.356
rtoes -7.47759
lfemur -26.3045 -0.537418 -30.1345
ltibia 26.6648
lfoot -18.5163 7.46879
ltoes -21.8182
297
root 3.82547 17.9658 -27.781 12.1796 -54.0189 4.9713
lowerback -6.00788 0.161863 -6.00631
upperback -6.08111 0.325759 0.391051
thorax -2.991 0.350122 3.78643
lowerneck 0.161901 13.3261 10.3182
upperneck 7.95524 18.7017 -12.4173
head 4.50065 9.1557 -4.37618
rclavicle -1.29831e-015 -1.82882e-014
rhumerus -55.3381 16.4886 -91.6501
rradius 49.5621
rwrist -10.703
rhand -9.30677 -28.5178
rfingers 7.12502
rthumb 16.6511 -57.8236
lclavicle -1.29831e-015 -1.82882e-014
lhumerus -51.3092 -14.5432 85.9831
lradius 57.9348
lwrist 7.33426
lhand -19.1052 -9.82995
lfingers 7.12502
lthumb 7.20361 20.0274
rfemur -36.4602 -3.89413 16.3247
rtibia 64.7674
rfoot -3.84655 -8.09983
rtoes 11.5854
lfemur -25.9034 -0.241534 -30.2747
ltibia 26.8976
lfoot -19.0768 6.96727
ltoes -21.4571
